<svg width="46" height="54" fill="none" xmlns="http://www.w3.org/2000/svg"><g clip-path="url(#clip0_339_1848)"><path d="M15.024 2.125A6.08 6.08 0 0118.39 3.14a6.034 6.034 0 012.232 2.704 6 6 0 01-1.312 6.57 6.085 6.085 0 01-6.601 1.307 6.05 6.05 0 01-2.718-2.22 6.007 6.007 0 01-1.02-3.35 6.018 6.018 0 011.775-4.26 6.078 6.078 0 014.281-1.766h-.002zM15.027 0a8.227 8.227 0 00-5.794 2.387 8.118 8.118 0 00-2.4 5.765 8.117 8.117 0 002.37 5.817 8.196 8.196 0 005.821 2.417 8.228 8.228 0 005.822-2.417 8.15 8.15 0 001.77-2.673c.407-.998.61-2.067.6-3.145a8.131 8.131 0 00-2.4-5.764A8.212 8.212 0 0015.026 0h.002z" fill="#FA3640"/><path d="M6.226 6.375a3.005 3.005 0 01-.754 2.018c.238.279.426.596.557.937.132.352.2.725.197 1.1v2.773a3.01 3.01 0 01-.247 1.206 3.064 3.064 0 01-1.654 1.647 3.063 3.063 0 01-1.212.244H.178a.16.16 0 01-.17-.105.158.158 0 01-.008-.07V.18A.158.158 0 01.107.007.16.16 0 01.18 0h2.934c.416 0 .828.082 1.211.245.748.31 1.343.902 1.654 1.647.165.38.249.791.247 1.206v3.277zM4.079 3.098a.914.914 0 00-.289-.685.958.958 0 00-.688-.277h-.774a.16.16 0 00-.175.107.159.159 0 00-.007.072v4.84a.159.159 0 00.109.173.16.16 0 00.073.006h.774a.958.958 0 00.686-.277.912.912 0 00.289-.684l.002-3.275zm0 7.336a.908.908 0 00-.289-.684.956.956 0 00-.688-.278h-.774a.16.16 0 00-.175.107.159.159 0 00-.007.073v4.338a.158.158 0 00.109.173.15.15 0 00.073.006h.774a.963.963 0 00.686-.277.917.917 0 00.289-.684l.002-2.774zM24.16 0h1.852a.18.18 0 01.18.13l1.851 8.267V.18a.158.158 0 01.18-.18h1.791a.16.16 0 01.173.107c.007.024.01.048.006.073v15.944a.158.158 0 01-.179.18H28.17a.164.164 0 01-.179-.13L26.143 8.15l-.017 7.973a.158.158 0 01-.18.18H24.16a.16.16 0 01-.18-.18V.18a.158.158 0 01.18-.18zm14.186 16.042a.24.24 0 01-.016.147l-.066.084a.328.328 0 01-.148.032h-1.67a.328.328 0 01-.148-.032l-.065-.05a.323.323 0 01-.033-.146l-.426-3.767c0-.043-.028-.065-.084-.065h-1.096a.105.105 0 00-.098.066l-.426 3.766a.2.2 0 01-.016.073.91.91 0 01-.033.074l-.049.049a.527.527 0 01-.147.032h-1.688a.523.523 0 01-.148-.032l-.065-.084a.401.401 0 01-.017-.147L33.645.23a.2.2 0 01.048-.146l.05-.049A.523.523 0 0133.89 0h2.49a.33.33 0 01.148.033l.065.049a.24.24 0 01.024.073c.006.026.014.05.026.074l1.703 15.813zm-2.881-5.934c.043 0 .065-.027.065-.084l-.377-3.554c0-.021-.003-.032-.008-.032-.006 0-.008.01-.008.032l-.393 3.554a.07.07 0 00.02.064.072.072 0 00.063.02h.638zM.18 35.148a.16.16 0 01-.18-.18V19.023a.158.158 0 01.107-.173.16.16 0 01.073-.007h2.934c.417-.002.83.081 1.213.245.748.31 1.343.902 1.654 1.647.164.381.247.793.245 1.208v5.315c0 .412-.085.82-.252 1.198a3.084 3.084 0 01-1.657 1.637 3.089 3.089 0 01-1.215.245h-.775a.16.16 0 00-.181.18v4.45a.157.157 0 01-.106.173.16.16 0 01-.073.007H.18zM3.101 28.2a.95.95 0 00.694-.277.907.907 0 00.28-.667v-5.313a.924.924 0 00-.28-.685.948.948 0 00-.694-.278h-.774a.16.16 0 00-.182.18v6.863a.159.159 0 00.11.171c.023.008.047.01.072.006h.774zM14 20.98h-3.7a.16.16 0 00-.18.18v4.597a.158.158 0 00.108.173.16.16 0 00.074.006h1.425a.161.161 0 01.133.046.16.16 0 01.045.133v1.78a.158.158 0 01-.182.177h-1.426a.16.16 0 00-.175.106.158.158 0 00-.007.073v4.582a.157.157 0 00.045.134.16.16 0 00.136.045H14a.16.16 0 01.18.18v1.776a.158.158 0 01-.18.18H8.153a.16.16 0 01-.18-.18V19.023a.158.158 0 01.18-.18H14a.16.16 0 01.18.18V20.8a.158.158 0 01-.107.174.16.16 0 01-.073.006zm5.004 14.168a3.006 3.006 0 01-1.204-.245 3.277 3.277 0 01-.991-.66 3.081 3.081 0 01-.917-2.193V21.943a3.072 3.072 0 01.917-2.194 3.26 3.26 0 01.99-.66c.38-.164.79-.247 1.205-.244a3.05 3.05 0 011.212.244c.75.31 1.344.902 1.655 1.647.164.381.248.792.246 1.207V32.05c.002.414-.082.825-.246 1.206a3.062 3.062 0 01-1.655 1.647 3.065 3.065 0 01-1.212.245zm-.008-14.168a.92.92 0 00-.678.285.934.934 0 00-.28.677V32.05a.933.933 0 00.28.676.914.914 0 00.678.286.941.941 0 00.685-.286.919.919 0 00.29-.676V21.943a.915.915 0 00-.29-.677.94.94 0 00-.685-.286zm5.164 14.168a.16.16 0 01-.18-.18V19.023a.158.158 0 01.18-.18h2.935c.417-.002.83.081 1.212.245a3.06 3.06 0 011.655 1.647c.164.382.247.793.244 1.208v5.315c.001.412-.085.82-.251 1.198a3.084 3.084 0 01-1.661 1.638 3.09 3.09 0 01-1.214.244h-.773a.16.16 0 00-.181.18v4.45a.158.158 0 01-.179.18H24.16zm2.925-6.948a.947.947 0 00.694-.277.907.907 0 00.28-.667v-5.313a.924.924 0 00-.28-.685.947.947 0 00-.694-.277h-.777a.161.161 0 00-.175.106.16.16 0 00-.007.073v6.863a.159.159 0 00.11.171.16.16 0 00.072.006h.777zm7.102-9.177v13.81a.158.158 0 00.108.172.16.16 0 00.073.007h3.719a.161.161 0 01.135.045.16.16 0 01.045.134v1.777a.157.157 0 01-.045.135.16.16 0 01-.135.045h-5.869a.16.16 0 01-.18-.18V19.023a.158.158 0 01.18-.18h1.786a.161.161 0 01.137.044.158.158 0 01.046.136zM45.82 20.98h-3.703a.16.16 0 00-.173.107.157.157 0 00-.007.073v4.597a.158.158 0 00.109.173.16.16 0 00.073.006h1.425a.16.16 0 01.179.178v1.78a.158.158 0 01-.182.178h-1.425a.161.161 0 00-.175.106.16.16 0 00-.007.073v4.582a.158.158 0 00.18.179h3.702a.16.16 0 01.18.18v1.776a.158.158 0 01-.18.18H39.97a.161.161 0 01-.134-.045.157.157 0 01-.044-.135V19.023a.158.158 0 01.178-.18h5.85a.16.16 0 01.174.107c.008.024.01.048.007.073V20.8a.159.159 0 01-.18.18zM6.226 50.568v.326c.003.432-.09.86-.273 1.252-.175.378-.42.72-.721 1.01a3.066 3.066 0 01-1.054.658 3.073 3.073 0 01-3.35-.842A3.298 3.298 0 010 50.796v-9.914a3.297 3.297 0 01.828-2.177 3.083 3.083 0 013.35-.839c.394.146.753.37 1.056.66.301.29.545.634.719 1.013.181.39.274.816.27 1.246v.881a.158.158 0 01-.179.18H4.258a.158.158 0 01-.178-.18v-.847a.991.991 0 00-.215-.62.977.977 0 00-.562-.359.94.94 0 00-.81.212.926.926 0 00-.347.733v10.077c0 .223.075.44.215.616a.973.973 0 00.562.359.942.942 0 00.81-.212.925.925 0 00.347-.73v-3.672h-.784a.16.16 0 01-.176-.106.159.159 0 01-.007-.073v-1.777a.158.158 0 01.107-.173.16.16 0 01.073-.007h2.753a.16.16 0 01.18.18v5.3zm1.912-12.88h2.934a3.05 3.05 0 011.213.245 3.06 3.06 0 011.654 1.646c.164.38.248.791.246 1.206v4.043c.002.365-.061.727-.188 1.069a3.288 3.288 0 01-.536.93.06.06 0 00.018.076 3.3 3.3 0 01.516.904c.127.342.19.703.188 1.068v4.939a.157.157 0 01-.107.173.16.16 0 01-.072.006h-1.787a.16.16 0 01-.173-.107.157.157 0 01-.007-.072v-4.94a.89.89 0 00-.289-.667.956.956 0 00-.686-.278h-.776a.162.162 0 00-.136.045.16.16 0 00-.046.135v5.705a.157.157 0 01-.106.173.16.16 0 01-.073.006H8.136a.158.158 0 01-.178-.18V37.868a.158.158 0 01.107-.172.16.16 0 01.073-.007zm1.966 7.926a.158.158 0 00.046.136.16.16 0 00.136.044h.78a.954.954 0 00.686-.278.896.896 0 00.29-.668v-4.054a.915.915 0 00-.29-.686.955.955 0 00-.685-.278h-.963v5.784zm8.9 8.376a2.994 2.994 0 01-1.204-.244 3.26 3.26 0 01-.991-.66 3.081 3.081 0 01-.917-2.192V40.785a3.067 3.067 0 01.917-2.192c.287-.28.622-.503.99-.66.38-.164.79-.248 1.205-.245a3.05 3.05 0 011.212.244 3.06 3.06 0 011.655 1.647c.164.38.247.791.246 1.206v10.109c.001.414-.082.825-.246 1.206a3.058 3.058 0 01-1.655 1.646 3.05 3.05 0 01-1.212.245zm-.008-14.166a.928.928 0 00-.678.284.938.938 0 00-.28.677v10.109a.935.935 0 00.28.676.92.92 0 00.678.286.946.946 0 00.685-.286.925.925 0 00.29-.676V40.785a.92.92 0 00-.29-.677.942.942 0 00-.685-.284zm11.194-1.957v13.027a3.073 3.073 0 01-.915 2.193c-.286.278-.62.502-.988.66a2.981 2.981 0 01-1.202.244 3.032 3.032 0 01-1.209-.245A3.061 3.061 0 0124.23 52.1a3.04 3.04 0 01-.252-1.206V37.868a.158.158 0 01.18-.18h1.786a.16.16 0 01.174.107.16.16 0 01.007.072v13.027a.972.972 0 00.286.677c.18.18.425.282.68.285a.908.908 0 00.67-.285.938.938 0 00.28-.677V37.868a.158.158 0 01.179-.18h1.795a.158.158 0 01.175.18zm2.03 16.123a.16.16 0 01-.173-.106.158.158 0 01-.006-.073V37.867a.157.157 0 01.045-.134.157.157 0 01.135-.045h2.935a3.05 3.05 0 011.212.245c.748.31 1.343.901 1.655 1.646.163.381.247.791.245 1.206v5.316a2.94 2.94 0 01-.246 1.198 3.173 3.173 0 01-.666.978 3.155 3.155 0 01-2.213.905h-.773a.16.16 0 00-.181.18v4.452a.158.158 0 01-.179.18l-1.79-.003zm2.925-6.944a.95.95 0 00.695-.277.906.906 0 00.28-.668v-5.316a.922.922 0 00-.28-.684.945.945 0 00-.695-.277h-.776a.16.16 0 00-.182.178v6.864a.158.158 0 00.109.174.16.16 0 00.073.006h.776z" fill="#fff"/></g><defs><clipPath id="clip0_339_1848"><path fill="#fff" d="M0 0h46v54H0z"/></clipPath></defs></svg>