<svg width="110" height="37" fill="none" xmlns="http://www.w3.org/2000/svg"><rect width="110" height="37" rx="5" fill="#000"/><path fill-rule="evenodd" clip-rule="evenodd" d="M25.102 18.827c-.023-2.578 2.112-3.833 2.21-3.892-1.21-1.762-3.083-2.003-3.742-2.02-1.573-.167-3.1.94-3.901.94-.818 0-2.053-.925-3.383-.898-1.71.026-3.313 1.017-4.192 2.557-1.812 3.138-.46 7.75 1.276 10.287.87 1.242 1.884 2.63 3.212 2.58 1.3-.054 1.786-.829 3.356-.829 1.554 0 2.01.83 3.365.798 1.395-.023 2.274-1.248 3.112-2.5 1.004-1.426 1.407-2.828 1.423-2.9-.032-.01-2.71-1.032-2.736-4.123zm-2.56-7.582c.699-.875 1.177-2.064 1.044-3.27-1.012.043-2.277.698-3.005 1.554-.645.753-1.221 1.99-1.072 3.15 1.137.085 2.304-.573 3.033-1.434zm21.334 12.088l-.9-2.78c-.095-.284-.274-.953-.538-2.006h-.03a77.48 77.48 0 01-.506 2.007l-.884 2.779h2.858zm3.112 4.44h-1.817l-.995-3.128h-3.458l-.948 3.127H38l3.428-10.646h2.117l3.443 10.646v.001zm7.076-3.871c0-.747-.168-1.363-.506-1.848-.368-.505-.863-.759-1.484-.759-.421 0-.804.141-1.145.42a1.925 1.925 0 00-.671 1.098c-.053.21-.08.384-.08.52v1.28c0 .558.172 1.03.514 1.414.342.384.787.576 1.334.576.643 0 1.144-.248 1.501-.742.358-.495.537-1.148.537-1.96v.001zm1.738-.063c0 1.306-.353 2.338-1.059 3.096-.632.674-1.416 1.01-2.353 1.01-1.01 0-1.737-.362-2.18-1.09h-.032v4.044h-1.705v-8.276a53.4 53.4 0 00-.063-2.528h1.5l.095 1.217h.032c.568-.917 1.432-1.374 2.59-1.374.906 0 1.661.357 2.267 1.073.605.717.908 1.66.908 2.828zm7.092.063c0-.747-.17-1.363-.506-1.848-.369-.505-.863-.759-1.485-.759-.421 0-.803.141-1.145.42a1.934 1.934 0 00-.67 1.098 2.27 2.27 0 00-.08.52v1.28c0 .558.171 1.03.512 1.414.342.384.788.576 1.336.576.642 0 1.142-.248 1.5-.742.358-.495.538-1.148.538-1.96v.001zm1.737-.063c0 1.306-.353 2.338-1.059 3.096-.631.674-1.416 1.01-2.353 1.01-1.011 0-1.737-.362-2.179-1.09h-.032v4.044h-1.706v-8.276c0-.821-.021-1.664-.063-2.528h1.501l.094 1.217h.032c.568-.917 1.43-1.374 2.59-1.374.905 0 1.662.357 2.267 1.073.605.717.908 1.66.908 2.828zm9.872.948c0 .905-.314 1.642-.945 2.21-.694.623-1.66.933-2.9.933-1.145 0-2.064-.221-2.76-.663l.396-1.422a4.67 4.67 0 002.465.68c.643 0 1.143-.146 1.502-.436.358-.29.536-.678.536-1.163a1.481 1.481 0 00-.443-1.091c-.293-.296-.784-.57-1.468-.824-1.864-.695-2.796-1.713-2.796-3.053 0-.875.328-1.592.98-2.151.652-.56 1.52-.839 2.607-.839.969 0 1.773.168 2.415.505l-.426 1.39c-.6-.326-1.279-.49-2.038-.49-.6 0-1.069.148-1.405.443a1.265 1.265 0 00-.426.964c0 .421.162.769.49 1.042.283.253.8.527 1.547.822.916.369 1.59.8 2.022 1.295.432.495.647 1.112.647 1.848zm5.639-3.412h-1.88v3.728c0 .948.332 1.421.996 1.421.304 0 .558-.026.758-.078l.046 1.295c-.336.126-.777.189-1.326.189-.674 0-1.2-.206-1.58-.615-.378-.412-.569-1.101-.569-2.07v-3.87h-1.12v-1.28h1.12V18.69l1.675-.506v1.911h1.88v1.28zm6.713 2.551c0-.707-.152-1.315-.458-1.822-.358-.613-.869-.918-1.531-.918-.686 0-1.207.305-1.564.918-.307.507-.458 1.124-.458 1.854 0 .708.151 1.315.458 1.821.368.612.884.919 1.548.919.652 0 1.163-.311 1.532-.935.315-.516.473-1.13.473-1.837zm1.77-.055c0 1.18-.337 2.148-1.01 2.906-.707.78-1.645 1.169-2.813 1.169-1.127 0-2.024-.374-2.692-1.122-.67-.747-1.004-1.69-1.004-2.827 0-1.19.344-2.164 1.035-2.922.689-.758 1.618-1.137 2.787-1.137 1.127 0 2.033.373 2.718 1.121.652.727.979 1.664.979 2.812zm5.544-2.276a2.958 2.958 0 00-.538-.046c-.6 0-1.064.226-1.39.68-.285.4-.427.905-.427 1.515v4.028H90.11l.015-5.259c0-.886-.022-1.691-.064-2.418h1.486l.063 1.47h.046c.161-.48.458-.902.854-1.216a2.06 2.06 0 011.232-.411c.158 0 .3.011.427.031v1.626zm6.001 1.534c.012-.506-.1-.942-.33-1.312-.296-.474-.75-.71-1.36-.71-.558 0-1.011.23-1.358.695-.29.385-.466.845-.504 1.326h3.552v.001zm1.627.442a4 4 0 01-.063.773h-5.116c.02.759.267 1.339.741 1.739.431.357.99.536 1.674.536.757 0 1.449-.121 2.07-.364l.267 1.185c-.726.316-1.584.475-2.573.475-1.19 0-2.125-.35-2.805-1.052-.678-.7-1.018-1.64-1.018-2.819 0-1.158.315-2.122.948-2.89.663-.822 1.558-1.232 2.684-1.232 1.107 0 1.944.41 2.513 1.232.451.653.678 1.459.678 2.417zM38.812 8.387c.18-.108.386-.2.617-.275.23-.075.5-.112.81-.112.502 0 .898.12 1.187.357.29.238.435.558.435.962 0 .321-.097.59-.29.807-.196.219-.456.37-.742.435v.023c.165.026.322.071.47.135.147.066.276.152.387.26a1.178 1.178 0 01.36.862c.001.29-.057.533-.174.73-.113.194-.27.358-.458.481a1.95 1.95 0 01-.632.267 3.06 3.06 0 01-.698.082c-.248 0-.494-.026-.738-.078a2.344 2.344 0 01-.675-.256l.21-.644a3.1 3.1 0 00.52.194c.212.062.427.093.644.093.357 0 .633-.08.826-.24a.793.793 0 00.292-.644.79.79 0 00-.117-.447.847.847 0 00-.303-.276 1.326 1.326 0 00-.414-.139 2.753 2.753 0 00-.455-.039h-.348v-.636h.348c.161 0 .31-.02.447-.062.137-.041.256-.1.357-.175a.82.82 0 00.236-.267.724.724 0 00.086-.35.662.662 0 00-.249-.547c-.165-.132-.388-.197-.667-.197a1.87 1.87 0 00-.574.092c-.192.063-.363.13-.512.203l-.187-.599h.001zm6.548 3.051c-.468 0-.817.059-1.046.178a.61.61 0 00-.343.582c0 .197.055.344.163.442.112.1.258.152.408.147a.84.84 0 00.567-.216.791.791 0 00.182-.245.7.7 0 00.069-.307v-.581zm.116 1.877l-.062-.434h-.023c-.253.346-.62.52-1.101.52a1.22 1.22 0 01-.466-.086 1.147 1.147 0 01-.365-.232 1.013 1.013 0 01-.24-.35 1.126 1.126 0 01-.085-.442c0-.47.19-.824.573-1.059.383-.235.927-.353 1.63-.353v-.07c0-.497-.261-.745-.782-.745-.372 0-.7.093-.984.28l-.17-.552c.346-.217.777-.325 1.294-.325.987 0 1.48.52 1.48 1.56v1.388c0 .388.019.688.055.9h-.754zm4.742-3.771v.69H48.65v3.081h-.837v-3.77h2.405v-.001zm3.943 1.871c0-.187-.023-.359-.067-.516a1.177 1.177 0 00-.193-.404.962.962 0 00-.31-.264.863.863 0 00-.757-.02.962.962 0 00-.504.528 1 1 0 00-.079.396v.628c0 .14.022.27.067.388.044.12.105.223.186.31a.81.81 0 00.287.206c.111.05.234.074.368.074.315 0 .562-.12.738-.36.175-.242.264-.563.264-.966zm.853-.032c0 .3-.042.575-.124.823a1.921 1.921 0 01-.346.636 1.54 1.54 0 01-1.206.559c-.497 0-.854-.178-1.07-.535h-.017v1.986h-.838v-4.066a25.01 25.01 0 00-.031-1.242h.737l.047.598h.016c.279-.45.703-.675 1.272-.675.222 0 .428.046.616.139.19.093.354.224.494.392.14.169.25.37.33.605.08.236.12.496.12.78zm4.502-1.839l-.955 2.615c-.227.621-.449 1.13-.663 1.525-.216.396-.421.684-.617.866-.29.258-.598.416-.924.473l-.202-.706c.218-.058.424-.169.621-.334.197-.166.354-.372.474-.621a.476.476 0 00.061-.17.692.692 0 00-.045-.179l-1.367-3.469h.923l.715 2.103c.037.099.072.21.108.334.037.124.075.26.117.411h.015c.026-.083.055-.188.085-.314.032-.127.073-.273.124-.439l.637-2.095h.893zm1.451 1.567h.387c.285 0 .505-.05.66-.155.155-.103.233-.23.233-.38a.433.433 0 00-.198-.373c-.131-.092-.315-.139-.547-.139-.15 0-.302.024-.453.074a2.24 2.24 0 00-.424.182l-.217-.543c.217-.12.433-.2.648-.244.214-.045.43-.066.647-.066a2.7 2.7 0 01.517.05c.172.034.327.09.462.17.134.081.244.186.33.315a.86.86 0 01.127.481c0 .12-.023.224-.07.315a.825.825 0 01-.186.24.996.996 0 01-.26.17c-.093.043-.19.076-.29.098v.023c.123.015.244.046.36.093.117.047.221.108.315.182a.903.903 0 01.225.272.763.763 0 01.085.361.924.924 0 01-.163.558c-.108.15-.25.273-.416.357a1.98 1.98 0 01-.554.19c-.202.04-.399.059-.59.059-.233 0-.464-.025-.69-.074a2.17 2.17 0 01-.615-.228l.22-.552c.134.073.287.133.46.183.174.049.35.073.532.073.284 0 .503-.055.656-.166a.5.5 0 00.228-.416c0-.108-.025-.2-.076-.275a.565.565 0 00-.218-.183 1.087 1.087 0 00-.326-.096 2.758 2.758 0 00-.404-.028h-.395v-.528zm4.477-1.567v1.335c0 .305-.005.58-.016.823-.01.243-.023.499-.04.768l.017.015.29-.578c.097-.188.194-.381.293-.578l.931-1.785h1.086v3.771h-.792v-1.334c0-.28.008-.56.02-.838.013-.28.026-.561.042-.846h-.039c-.076.207-.164.41-.264.606-.087.17-.175.346-.262.527-.161.31-.321.62-.479.931-.157.31-.325.629-.5.954h-1.085v-3.77h.798v-.001zm6.984 0v.69H71.28v3.081h-.824v-3.08h-1.14v-.69h3.112v-.001zm3.475 1.49c0-.295-.07-.534-.213-.718-.141-.183-.348-.275-.616-.275a.806.806 0 00-.62.28 1.18 1.18 0 00-.296.713h1.745zm.8.217c0 .072-.003.141-.008.206a1.258 1.258 0 01-.023.174h-2.514c.01.357.124.633.337.827.215.194.499.291.85.291.368 0 .707-.06 1.017-.178l.132.581c-.358.155-.778.234-1.266.234-.294 0-.558-.046-.79-.136a1.635 1.635 0 01-.59-.384 1.695 1.695 0 01-.37-.598 2.28 2.28 0 01-.126-.784c0-.29.042-.557.126-.803a1.98 1.98 0 01.361-.64 1.68 1.68 0 01.563-.427c.23-.105.48-.158.734-.155.238 0 .453.043.649.128.193.085.359.207.495.364.138.158.242.348.314.567.073.22.11.465.11.733h-.001zm4.183 1.498c.103.01.19.018.26.023.198.014.396.009.593-.015a1.16 1.16 0 00.327-.089.6.6 0 00.236-.177.463.463 0 00.09-.297.45.45 0 00-.287-.447c-.192-.082-.45-.124-.777-.124h-.442v1.126zm0-1.668h.427c.13 0 .253-.01.369-.027.116-.019.218-.047.305-.086a.505.505 0 00.207-.155.383.383 0 00.073-.237.4.4 0 00-.213-.376c-.143-.08-.367-.12-.67-.12-.089 0-.165.003-.23.007l-.268.024v.97zm-.806-1.506c.15-.025.34-.046.574-.062.232-.015.47-.023.713-.023.155 0 .33.01.523.027.195.018.38.06.556.124.176.065.323.162.441.291.12.13.18.305.18.527a.739.739 0 01-.23.544.933.933 0 01-.24.167 1.17 1.17 0 01-.283.097l.008.023c.273.046.497.145.667.295.17.15.257.357.257.62 0 .265-.074.474-.218.629a1.347 1.347 0 01-.536.35 2.615 2.615 0 01-.671.147c-.21.019-.421.029-.632.03a12.15 12.15 0 01-1.109-.046v-3.74z" fill="#FFFFFE"/></svg>