<svg width="20" height="20" fill="none" xmlns="http://www.w3.org/2000/svg"><g clip-path="url(#clip0_101_725)"><path d="M10.968 15.828c.508 0 .715-.338.71-.762-.026-1.598.595-2.458 1.715-1.337 1.24 1.24 1.497 2.1 3.003 2.1h2.666c.674 0 .939-.217.939-.557 0-.72-1.184-1.989-2.188-2.92-1.405-1.304-1.47-1.335-.26-2.905C19.052 7.497 21.016 5 19.28 5h-3.318c-.643 0-.69.363-.919.903-.829 1.955-2.405 4.489-3.003 4.101C11.414 9.6 11.7 8 11.748 5.62c.013-.628.01-1.06-.95-1.282a6.725 6.725 0 00-1.508-.171c-1.894 0-3.2.794-2.458.932 1.309.244 1.183 3.077.878 4.3-.532 2.13-2.53-1.686-3.362-3.587C4.147 5.355 4.085 5 3.368 5H.656C.246 5 0 5.133 0 5.43c0 .502 2.467 5.6 4.822 8.142 2.296 2.479 4.566 2.256 6.146 2.256z" fill="#000"/></g><defs><clipPath id="clip0_101_725"><path fill="#fff" d="M0 0h20v20H0z"/></clipPath></defs></svg>